<mxfile host="app.diagrams.net" modified="2020-03-19T14:29:29.881Z" agent="Mozilla/5.0 (Windows NT 10.0; Win64; x64) AppleWebKit/537.36 (KHTML, like Gecko) Chrome/80.0.3987.132 Safari/537.36 OPR/67.0.3575.79" etag="tmmM87aZ6gpnIfl7KHF9" version="12.8.6" type="github">
  <diagram id="bxGah_gDN5B447SxgT9F" name="Page-1">
    <mxGraphModel dx="1038" dy="559" grid="1" gridSize="10" guides="1" tooltips="1" connect="1" arrows="1" fold="1" page="1" pageScale="1" pageWidth="850" pageHeight="1100" math="0" shadow="0">
      <root>
        <mxCell id="0" />
        <mxCell id="1" parent="0" />
        <mxCell id="UtyQ7sNmkvlA4Ji71kfo-1" value="Delaer" style="swimlane;html=1;horizontal=0;startSize=20;" parent="1" vertex="1">
          <mxGeometry x="105" y="60" width="320" height="240" as="geometry" />
        </mxCell>
        <mxCell id="UtyQ7sNmkvlA4Ji71kfo-2" value="Lane" style="swimlane;html=1;horizontal=0;swimlaneLine=0;" parent="UtyQ7sNmkvlA4Ji71kfo-1" vertex="1">
          <mxGeometry x="20" y="120" width="300" height="120" as="geometry" />
        </mxCell>
      </root>
    </mxGraphModel>
  </diagram>
</mxfile>
